<svg width="20" height="20" viewBox="0 0 20 20" fill="none" xmlns="http://www.w3.org/2000/svg">
<path fill-rule="evenodd" clip-rule="evenodd" d="M7.08333 15.8334C7.77369 15.8334 8.33333 16.3931 8.33333 17.0834C8.33333 17.7738 7.77369 18.3334 7.08333 18.3334C6.39297 18.3334 5.83333 17.7738 5.83333 17.0834C5.83333 16.3931 6.39297 15.8334 7.08333 15.8334ZM14.5833 15.8334C15.2737 15.8334 15.8333 16.3931 15.8333 17.0834C15.8333 17.7738 15.2737 18.3334 14.5833 18.3334C13.893 18.3334 13.3333 17.7738 13.3333 17.0834C13.3333 16.3931 13.893 15.8334 14.5833 15.8334ZM2.5 1.66675H4.16666C4.54633 1.66675 4.87359 1.92245 4.97088 2.28153L4.99031 2.37337L5.39442 5.00008H17.5C17.9998 5.00008 18.3791 5.43398 18.3293 5.91704L18.3135 6.01419L16.9368 12.2091C16.6937 13.3032 15.7549 14.0954 14.6483 14.1622L14.4964 14.1667H7.2632C6.07863 14.1667 5.06414 13.3371 4.81888 12.1917L4.79227 12.0469L3.45173 3.33341H2.5C2.03976 3.33341 1.66666 2.96032 1.66666 2.50008C1.66666 2.07272 1.98836 1.72049 2.40281 1.67235L2.5 1.66675H4.16666H2.5ZM16.4612 6.66675H5.65083L6.43955 11.7935C6.49728 12.1687 6.79977 12.4533 7.16947 12.4948L7.2632 12.5001H14.4964C14.8544 12.5001 15.1684 12.2721 15.2835 11.9405L15.3099 11.8475L16.4612 6.66675Z" fill="#101010"/>
</svg>
